<svg width="110" height="114" viewBox="0 0 110 114" fill="none" xmlns="http://www.w3.org/2000/svg">
<path d="M7.23983 41.8216C28.0523 6.93721 64.7402 -3.17709 82.7399 0.821637C102.24 6.82257 119.44 57.1226 102.24 88.3226C85.0402 119.523 47.0733 114.989 30.2398 108.823C13.2383 104.348 -12.7622 75.3477 7.23983 41.8216Z" fill="#FFF2EB"/>
<path d="M63.334 68.666H46.6673V45.3327H63.334M63.334 38.666H46.6673C44.8173 38.666 43.334 40.1493 43.334 41.9993V71.9994C43.334 72.8834 43.6852 73.7313 44.3103 74.3564C44.9354 74.9815 45.7833 75.3327 46.6673 75.3327H63.334C64.218 75.3327 65.0659 74.9815 65.691 74.3564C66.3161 73.7313 66.6673 72.8834 66.6673 71.9994V41.9993C66.6673 41.1153 66.3161 40.2674 65.691 39.6423C65.0659 39.0172 64.218 38.666 63.334 38.666Z" fill="#FD6C04"/>
</svg>
