<svg width="110" height="114" viewBox="0 0 110 114" fill="none" xmlns="http://www.w3.org/2000/svg">
<path d="M7.23983 41.8216C28.0523 6.93721 64.7402 -3.17709 82.7399 0.821637C102.24 6.82257 119.44 57.1226 102.24 88.3226C85.0402 119.523 47.0733 114.989 30.2398 108.823C13.2383 104.348 -12.7622 75.3477 7.23983 41.8216Z" fill="#ECF8F5"/>
<path d="M52.5 40.75C51.85 40.75 51.175 40.975 50.7 41.45C50.225 41.925 50 42.6 50 43.25V44.5H38.75V69.5H52.75C52.5875 68.7 52.5 67.8625 52.5 67H41.25V58.8C41.9875 59.225 42.8375 59.5 43.75 59.5H55.0125C55.7125 58.55 56.5625 57.7 57.5125 57H43.75C42.2625 57 41.25 55.9875 41.25 54.5V47H68.75V54.5C68.75 54.7 68.7375 54.8875 68.7 55.0625C69.6 55.3375 70.45 55.7125 71.25 56.175V44.5H60V43.25C60 42.6 59.775 41.925 59.3 41.45C58.825 40.975 58.15 40.75 57.5 40.75H52.5ZM52.5 43.25H57.5V44.5H52.5V43.25ZM46.25 52V55.75H48.75V52H46.25ZM61.25 52V55.075C62.064 54.8206 62.9016 54.6489 63.75 54.5625V52H61.25ZM65 57C59.4875 57 55 61.4875 55 67C55 72.5125 59.4875 77 65 77C70.5125 77 75 72.5125 75 67C75 61.4875 70.5125 57 65 57ZM65 59.5C69.15 59.5 72.5 62.85 72.5 67C72.5 71.15 69.15 74.5 65 74.5C60.85 74.5 57.5 71.15 57.5 67C57.5 62.85 60.85 59.5 65 59.5ZM63.75 60.75V68.25H70V65.75H66.25V60.75H63.75Z" fill="#3AB094"/>
</svg>
