<svg width="24" height="24" viewBox="0 0 24 24" fill="none" xmlns="http://www.w3.org/2000/svg">
<path d="M7.77201 2.43899L8.84901 2.09499C9.85701 1.77299 10.935 2.29399 11.367 3.31199L12.227 5.33999C12.602 6.22299 12.394 7.26199 11.713 7.90799L9.82001 9.70599C9.93701 10.782 10.298 11.841 10.904 12.883C11.4798 13.8912 12.2521 14.7736 13.175 15.478L15.451 14.718C16.313 14.431 17.252 14.762 17.781 15.539L19.013 17.349C19.629 18.253 19.518 19.499 18.755 20.265L17.937 21.086C17.123 21.903 15.961 22.2 14.885 21.864C12.346 21.072 10.012 18.721 7.88201 14.811C5.74901 10.895 4.99701 7.57099 5.62401 4.84299C5.88801 3.69499 6.70601 2.77999 7.77401 2.43899" fill="#010066"/>
</svg>
