<svg width="24" height="24" viewBox="0 0 24 24" fill="none" xmlns="http://www.w3.org/2000/svg">
<path d="M9.61936 12.0231C8.94418 12.6081 8.0926 12.9502 7.20036 12.995C6.30812 13.0397 5.42658 12.7845 4.69626 12.27C3.96594 11.7555 3.42888 11.0113 3.17069 10.156C2.9125 9.30079 2.94805 8.38374 3.27166 7.55105C3.59527 6.71836 4.18832 6.01797 4.95627 5.56152C5.72423 5.10507 6.62288 4.91884 7.50898 5.03252C8.39508 5.1462 9.21762 5.55323 9.84549 6.18875C10.4734 6.82426 10.8704 7.65167 10.9734 8.53908C11.3294 10.3491 11.3254 12.5061 10.5094 14.4391C9.64736 16.4791 7.90835 18.1991 4.93935 18.9761C4.84374 19.0021 4.74393 19.0089 4.64567 18.9961C4.54742 18.9833 4.45267 18.9512 4.36691 18.9015C4.28115 18.8519 4.20607 18.7858 4.14601 18.707C4.08595 18.6282 4.0421 18.5382 4.017 18.4424C3.9919 18.3465 3.98604 18.2466 3.99976 18.1485C4.01348 18.0504 4.04651 17.9559 4.09694 17.8707C4.14736 17.7854 4.21419 17.7109 4.29356 17.6516C4.37293 17.5923 4.46327 17.5493 4.55936 17.5251C7.09036 16.8621 8.45136 15.4551 9.12736 13.8551C9.37117 13.2687 9.53659 12.6527 9.61936 12.0231Z" fill="#206CFF"/>
<path d="M19.6194 12.0231C18.9442 12.6081 18.0926 12.9502 17.2004 12.995C16.3081 13.0397 15.4266 12.7845 14.6963 12.27C13.9659 11.7555 13.4289 11.0113 13.1707 10.156C12.9125 9.30079 12.948 8.38374 13.2717 7.55105C13.5953 6.71836 14.1883 6.01797 14.9563 5.56152C15.7242 5.10507 16.6229 4.91884 17.509 5.03252C18.3951 5.1462 19.2176 5.55323 19.8455 6.18875C20.4734 6.82426 20.8704 7.65167 20.9734 8.53908C21.3294 10.3491 21.3254 12.5061 20.5094 14.4391C19.6474 16.4791 17.9084 18.1991 14.9394 18.9761C14.8437 19.0021 14.7439 19.0089 14.6457 18.9961C14.5474 18.9833 14.4527 18.9512 14.3669 18.9015C14.2811 18.8519 14.2061 18.7858 14.146 18.707C14.086 18.6282 14.0421 18.5382 14.017 18.4424C13.9919 18.3465 13.986 18.2466 13.9998 18.1485C14.0135 18.0504 14.0465 17.9559 14.0969 17.8707C14.1474 17.7854 14.2142 17.7109 14.2936 17.6516C14.3729 17.5923 14.4633 17.5493 14.5594 17.5251C17.0904 16.8621 18.4514 15.4551 19.1274 13.8551C19.3712 13.2687 19.5366 12.6527 19.6194 12.0231Z" fill="#206CFF"/>
</svg>
