<svg width="11" height="20" viewBox="0 0 11 20" fill="none" xmlns="http://www.w3.org/2000/svg">
<path d="M6.44414 0.927299C4.75195 1.27417 3.63633 2.26792 3.13945 3.87574C2.95664 4.46167 2.90508 4.99605 2.90508 6.39761V7.72417H1.63008C0.214453 7.72417 0.153516 7.73824 0.0597656 8.00542C-0.0199219 8.23511 -0.0199219 11.1507 0.0597656 11.3804C0.148828 11.6335 0.266016 11.657 1.67695 11.657L2.90508 11.6617V15.6882V19.7195L3.01758 19.8507L3.13008 19.982L4.81289 19.996C6.62227 20.0101 6.79102 19.996 6.88008 19.7945C6.92227 19.7054 6.93633 18.6085 6.93633 15.646V11.6195L8.50664 11.6054C9.93633 11.5914 10.0816 11.582 10.1566 11.507C10.2363 11.432 10.241 11.2914 10.241 9.66949V7.91636L10.1332 7.80855C10.0301 7.70074 10.0207 7.70074 8.47852 7.68667L6.92695 7.67261L6.9457 6.42105C6.95977 5.07574 6.97383 5.01011 7.23164 4.76636C7.42383 4.58355 7.54102 4.5648 8.84883 4.54136L10.1332 4.51324L10.2457 4.38199L10.3582 4.25074V2.65699V1.06324L10.241 0.950737L10.1285 0.833549L8.49727 0.838236C7.10508 0.842924 6.80508 0.852299 6.44414 0.927299Z" fill="white"/>
</svg>
