<svg width="50" height="50" viewBox="0 0 50 50" fill="none" xmlns="http://www.w3.org/2000/svg">
<rect x="0.5" y="0.5" width="49" height="49" rx="24.5" stroke="white"/>
<path d="M26.4441 14.9273C24.752 15.2742 23.6363 16.2679 23.1395 17.8757C22.9566 18.4617 22.9051 18.996 22.9051 20.3976V21.7242H21.6301C20.2145 21.7242 20.1535 21.7382 20.0598 22.0054C19.9801 22.2351 19.9801 25.1507 20.0598 25.3804C20.1488 25.6335 20.266 25.657 21.677 25.657L22.9051 25.6617V29.6882V33.7195L23.0176 33.8507L23.1301 33.982L24.8129 33.996C26.6223 34.0101 26.791 33.996 26.8801 33.7945C26.9223 33.7054 26.9363 32.6085 26.9363 29.646V25.6195L28.5066 25.6054C29.9363 25.5914 30.0816 25.582 30.1566 25.507C30.2363 25.432 30.241 25.2914 30.241 23.6695V21.9164L30.1332 21.8085C30.0301 21.7007 30.0207 21.7007 28.4785 21.6867L26.927 21.6726L26.9457 20.421C26.9598 19.0757 26.9738 19.0101 27.2316 18.7664C27.4238 18.5835 27.541 18.5648 28.8488 18.5414L30.1332 18.5132L30.2457 18.382L30.3582 18.2507V16.657V15.0632L30.241 14.9507L30.1285 14.8335L28.4973 14.8382C27.1051 14.8429 26.8051 14.8523 26.4441 14.9273Z" fill="white"/>
</svg>
