<svg width="1280" height="370" viewBox="0 0 1280 370" fill="none" xmlns="http://www.w3.org/2000/svg">
<path d="M0 0L36.2889 33.8549C64.5397 60.2108 104.78 69.3405 141.639 57.7564C170.525 48.678 201.902 52.2287 228.028 67.5325L304.508 112.33C349.59 138.738 404.766 141.324 452.121 119.25C484.434 104.188 520.87 100.416 555.583 108.541L601.045 119.181C628.867 125.692 657.488 128.114 686.008 126.369L764.129 121.591C807.971 118.909 850.385 104.989 887.291 81.1704L891.704 78.3223C943.305 45.0194 1005.62 32.5256 1066.07 43.3612C1108.58 50.982 1152.36 47.1139 1192.89 32.1563L1280 0V370H0V0Z" fill="#000066"/>
</svg>
