<svg width="24" height="24" viewBox="0 0 24 24" fill="none" xmlns="http://www.w3.org/2000/svg">
<path d="M5.15742 0.0691414C3.81211 0.270704 2.74805 0.80508 1.77773 1.77539C0.779297 2.77383 0.235547 3.88945 0.0527344 5.29102C-0.0175781 5.83945 -0.0175781 18.1582 0.0527344 18.7066C0.235547 20.1082 0.779297 21.2238 1.77773 22.2223C2.77617 23.2207 3.8918 23.7645 5.29336 23.9473C5.8418 24.0176 18.1605 24.0176 18.709 23.9473C20.1105 23.7645 21.2262 23.2207 22.2246 22.2223C23.223 21.2238 23.7668 20.1082 23.9496 18.7066C24.0199 18.1582 24.0199 5.83945 23.9496 5.29102C23.7668 3.88945 23.223 2.77383 22.2246 1.77539C21.2262 0.776955 20.1105 0.233204 18.709 0.0503922C18.109 -0.029295 5.68711 -0.0105457 5.15742 0.0691414ZM19.2059 2.18789C19.7355 2.3707 19.8527 2.43164 20.2887 2.73164C20.9824 3.20977 21.5309 3.95508 21.8074 4.79414L21.9621 5.27227V11.9988C21.9621 18.4348 21.9574 18.7395 21.873 19.0066C21.559 20.0238 21.0152 20.7785 20.2137 21.3223C19.8668 21.5566 19.5668 21.6926 19.0793 21.8473L18.7277 21.9598H12.0012H5.27461L4.79648 21.8051C3.48398 21.3738 2.56523 20.4129 2.1293 19.0066C2.04492 18.7395 2.04023 18.4348 2.04023 11.9988C2.04023 5.56289 2.04492 5.2582 2.1293 4.99102C2.46211 3.92227 3.04336 3.14414 3.91055 2.60039C4.27617 2.3707 4.9043 2.12696 5.29336 2.06133C5.41055 2.04258 8.49492 2.02852 12.1418 2.03321L18.7746 2.03789L19.2059 2.18789Z" fill="currentColor"/>
<path d="M18.1887 4.04884C17.8559 4.12384 17.6637 4.22697 17.4387 4.45666C17.134 4.77072 17.0403 5.01916 17.0403 5.50666C17.0403 5.87228 17.059 5.96134 17.1668 6.16291C17.4247 6.65041 17.8606 6.93634 18.4043 6.97384C18.8028 6.99728 19.0137 6.94103 19.3465 6.71603C20.2793 6.08791 20.1715 4.65822 19.159 4.17541C18.8122 4.01134 18.5356 3.97384 18.1887 4.04884Z" fill="currentColor"/>
<path d="M11.2324 6.05039C8.96836 6.36445 7.03711 7.93945 6.33398 10.0582C6.09492 10.7801 6.0293 11.1973 6.0293 11.9988C6.0293 12.8004 6.09492 13.2176 6.33398 13.9441C6.90117 15.641 8.36367 17.0988 10.0699 17.6707C10.7824 17.9051 11.2043 17.9707 12.0012 17.9707C12.798 17.9707 13.2199 17.9051 13.9324 17.6707C15.6387 17.0988 17.1012 15.641 17.6684 13.9441C17.9074 13.2176 17.973 12.8004 17.973 11.9988C17.973 10.9488 17.7715 10.091 17.3168 9.2332C16.4496 7.60664 14.959 6.48633 13.1496 6.11602C12.6996 6.02227 11.6777 5.98477 11.2324 6.05039ZM13.2059 8.19727C13.7074 8.36133 13.8434 8.42695 14.2277 8.68477C15.0152 9.21445 15.5449 9.95039 15.8496 10.9207C15.9434 11.2254 15.9621 11.3707 15.9621 11.9988C15.9621 12.7723 15.9059 13.0582 15.6293 13.6723C15.2824 14.4598 14.4621 15.2801 13.6699 15.6316C13.0605 15.9035 12.7746 15.9598 12.0012 15.9598C11.2277 15.9598 10.9418 15.9035 10.3324 15.6316C9.54023 15.2801 8.71992 14.4598 8.37305 13.6723C8.09648 13.0582 8.04023 12.7723 8.04023 11.9988C8.04023 11.3707 8.05898 11.2254 8.15273 10.9207C8.31211 10.4145 8.45273 10.1191 8.71992 9.73008C9.24961 8.96133 9.99023 8.43164 10.8996 8.16445C11.3637 8.02852 11.434 8.01914 12.1418 8.03789C12.6996 8.05195 12.8262 8.0707 13.2059 8.19727Z" fill="currentColor"/>
</svg>
