<svg width="50" height="50" viewBox="0 0 50 50" fill="none" xmlns="http://www.w3.org/2000/svg">
<rect x="0.5" y="0.5" width="49" height="49" rx="24.5" stroke="white"/>
<path d="M18.1574 13.0691C16.8121 13.2707 15.748 13.8051 14.7777 14.7754C13.7793 15.7738 13.2355 16.8895 13.0527 18.291C12.9824 18.8395 12.9824 31.1582 13.0527 31.7066C13.2355 33.1082 13.7793 34.2238 14.7777 35.2223C15.7762 36.2207 16.8918 36.7645 18.2934 36.9473C18.8418 37.0176 31.1605 37.0176 31.709 36.9473C33.1105 36.7645 34.2262 36.2207 35.2246 35.2223C36.223 34.2238 36.7668 33.1082 36.9496 31.7066C37.0199 31.1582 37.0199 18.8395 36.9496 18.291C36.7668 16.8895 36.223 15.7738 35.2246 14.7754C34.2262 13.777 33.1105 13.2332 31.709 13.0504C31.109 12.9707 18.6871 12.9895 18.1574 13.0691ZM32.2059 15.1879C32.7355 15.3707 32.8527 15.4316 33.2887 15.7316C33.9824 16.2098 34.5309 16.9551 34.8074 17.7941L34.9621 18.2723V24.9988C34.9621 31.4348 34.9574 31.7395 34.873 32.0066C34.559 33.0238 34.0152 33.7785 33.2137 34.3223C32.8668 34.5566 32.5668 34.6926 32.0793 34.8473L31.7277 34.9598H25.0012H18.2746L17.7965 34.8051C16.484 34.3738 15.5652 33.4129 15.1293 32.0066C15.0449 31.7395 15.0402 31.4348 15.0402 24.9988C15.0402 18.5629 15.0449 18.2582 15.1293 17.991C15.4621 16.9223 16.0434 16.1441 16.9105 15.6004C17.2762 15.3707 17.9043 15.127 18.2934 15.0613C18.4105 15.0426 21.4949 15.0285 25.1418 15.0332L31.7746 15.0379L32.2059 15.1879Z" fill="white"/>
<path d="M31.1885 17.0488C30.8557 17.1238 30.6635 17.227 30.4385 17.4567C30.1338 17.7707 30.04 18.0192 30.04 18.5067C30.04 18.8723 30.0588 18.9613 30.1666 19.1629C30.4244 19.6504 30.8604 19.9363 31.4041 19.9738C31.8025 19.9973 32.0135 19.941 32.3463 19.716C33.2791 19.0879 33.1713 17.6582 32.1588 17.1754C31.8119 17.0113 31.5354 16.9738 31.1885 17.0488Z" fill="white"/>
<path d="M24.2324 19.0504C21.9684 19.3645 20.0371 20.9395 19.334 23.0582C19.0949 23.7801 19.0293 24.1973 19.0293 24.9988C19.0293 25.8004 19.0949 26.2176 19.334 26.9441C19.9012 28.641 21.3637 30.0988 23.0699 30.6707C23.7824 30.9051 24.2043 30.9707 25.0012 30.9707C25.798 30.9707 26.2199 30.9051 26.9324 30.6707C28.6387 30.0988 30.1012 28.641 30.6684 26.9441C30.9074 26.2176 30.973 25.8004 30.973 24.9988C30.973 23.9488 30.7715 23.091 30.3168 22.2332C29.4496 20.6066 27.959 19.4863 26.1496 19.116C25.6996 19.0223 24.6777 18.9848 24.2324 19.0504ZM26.2059 21.1973C26.7074 21.3613 26.8434 21.427 27.2277 21.6848C28.0152 22.2145 28.5449 22.9504 28.8496 23.9207C28.9434 24.2254 28.9621 24.3707 28.9621 24.9988C28.9621 25.7723 28.9059 26.0582 28.6293 26.6723C28.2824 27.4598 27.4621 28.2801 26.6699 28.6316C26.0605 28.9035 25.7746 28.9598 25.0012 28.9598C24.2277 28.9598 23.9418 28.9035 23.3324 28.6316C22.5402 28.2801 21.7199 27.4598 21.373 26.6723C21.0965 26.0582 21.0402 25.7723 21.0402 24.9988C21.0402 24.3707 21.059 24.2254 21.1527 23.9207C21.3121 23.4145 21.4527 23.1191 21.7199 22.7301C22.2496 21.9613 22.9902 21.4316 23.8996 21.1645C24.3637 21.0285 24.434 21.0191 25.1418 21.0379C25.6996 21.052 25.8262 21.0707 26.2059 21.1973Z" fill="white"/>
</svg>
