<svg width="100%" height="500" viewBox="0 0 1280 1150" fill="none" xmlns="http://www.w3.org/2000/svg">
<path d="M0 22.1872L42.2796 39.2884C87.4713 57.5675 138.774 52.3494 179.36 25.346C217.586 -0.0868216 265.471 -6.27926 308.908 8.59304L537.127 86.7313C595.665 106.774 659.247 106.521 717.625 86.0141L770.292 67.5127C824.448 48.4883 884.533 57.8455 930.339 92.4373C982.73 132.002 1053.12 138.152 1111.58 108.272L1280 22.1872V1128L1182.04 1115.27C1137.73 1109.52 1092.68 1115.02 1051.06 1131.29C994.407 1153.42 931.873 1155.46 873.897 1137.05L691.317 1079.09C655.751 1067.79 618.391 1063.24 581.153 1065.65L481.222 1072.12C446.668 1074.36 411.988 1070.59 378.717 1061L345.242 1051.35C277.275 1031.75 204.568 1036.8 139.962 1065.6L0 1128V22.1872Z" fill="#000066"/>
</svg>
