<svg width="162" height="134" viewBox="0 0 162 134" fill="none" xmlns="http://www.w3.org/2000/svg">
<path d="M11.9931 57.4367C55.1444 38.6408 83.9119 26.2481 98.2956 20.261C139.412 3.16468 147.945 0.195434 153.518 0.0948401C154.744 0.0751839 157.473 0.378119 159.253 1.81765C160.733 3.03171 161.149 4.67359 161.358 5.82637C161.543 6.978 161.797 9.60269 161.589 11.6516C159.369 35.0541 149.726 91.8444 144.823 118.057C142.765 129.147 138.672 132.866 134.718 133.229C126.115 134.02 119.594 127.549 111.269 122.094C98.2494 113.554 90.8956 108.24 78.2463 99.9081C63.6313 90.2789 73.1125 84.9856 81.4375 76.3368C83.6113 74.0729 121.49 39.6282 122.207 36.504C122.299 36.1132 122.392 34.6563 121.513 33.8886C120.658 33.1185 119.386 33.3821 118.461 33.5902C117.143 33.8862 96.3531 47.641 56.0231 74.8522C50.1263 78.9083 44.7844 80.8855 39.9744 80.7814C34.7019 80.6681 24.5269 77.7937 16.965 75.3378C7.71502 72.3246 0.338144 70.7313 0.985644 65.6137C1.30939 62.9497 4.98627 60.2233 11.9931 57.4367Z" fill="white"/>
</svg>
