<svg width="69" height="69" viewBox="0 0 69 69" fill="none" xmlns="http://www.w3.org/2000/svg">
<path d="M32.5282 2.6076C32.9054 0.387512 36.0946 0.387505 36.4718 2.60759L38.6022 15.1491C38.8812 16.7918 40.9288 17.393 42.0516 16.1619L50.6242 6.76314C52.1418 5.09937 54.8247 6.82361 53.9417 8.89515L48.9535 20.5975C48.3001 22.1303 49.6976 23.743 51.3077 23.3145L63.6009 20.0424C65.777 19.4632 67.1019 22.3643 65.2391 23.6296L54.7159 30.7774C53.3376 31.7136 53.6413 33.8259 55.2275 34.3358L67.3382 38.2294C69.482 38.9186 69.0282 42.0754 66.777 42.1328L54.06 42.4566C52.3943 42.4991 51.5078 44.4402 52.5665 45.7268L60.6497 55.5498C62.0805 57.2886 59.992 59.6989 58.0672 58.5301L47.1938 51.9272C45.7697 51.0624 43.9744 52.2161 44.1695 53.8708L45.6587 66.5045C45.9224 68.7409 42.8623 69.6395 41.875 67.6155L36.2975 56.1823C35.567 54.6848 33.433 54.6848 32.7025 56.1823L27.125 67.6155C26.1377 69.6395 23.0776 68.7409 23.3413 66.5045L24.8305 53.8708C25.0256 52.2161 23.2303 51.0624 21.8062 51.9272L10.9328 58.5301C9.00801 59.6989 6.91949 57.2887 8.35035 55.5498L16.4335 45.7268C17.4922 44.4402 16.6057 42.4991 14.94 42.4566L2.223 42.1328C-0.0281544 42.0754 -0.482042 38.9186 1.66177 38.2294L13.7724 34.3358C15.3587 33.8259 15.6624 31.7136 14.2841 30.7774L3.76092 23.6296C1.89812 22.3643 3.22299 19.4632 5.39911 20.0424L17.6923 23.3145C19.3024 23.743 20.6999 22.1303 20.0465 20.5975L15.0583 8.89516C14.1753 6.82362 16.8582 5.09937 18.3758 6.76313L26.9484 16.1619C28.0712 17.393 30.1188 16.7918 30.3978 15.1491L32.5282 2.6076Z" fill="#F06C7A"/>
</svg>
