<svg width="95" height="95" viewBox="0 0 95 95" fill="none" xmlns="http://www.w3.org/2000/svg">
<path d="M45.5282 2.6076C45.9054 0.387513 49.0946 0.387505 49.4718 2.60759L53.0011 23.3847C53.2801 25.0273 55.3277 25.6286 56.4505 24.3975L70.6526 8.82684C72.1701 7.16308 74.8531 8.88732 73.9701 10.9589L65.7062 30.3458C65.0528 31.8785 66.4503 33.4913 68.0604 33.0627L88.4261 27.642C90.6022 27.0628 91.9271 29.9639 90.0643 31.2292L72.6309 43.0707C71.2526 44.0069 71.5564 46.1192 73.1426 46.6292L93.2059 53.0795C95.3497 53.7687 94.8958 56.9255 92.6447 56.9829L71.5768 57.5194C69.9111 57.5618 69.0246 59.503 70.0833 60.7896L83.4744 77.063C84.9053 78.8018 82.8167 81.2121 80.8919 80.0433L62.8784 69.1045C61.4543 68.2397 59.659 69.3934 59.8541 71.0481L62.3213 91.9779C62.5849 94.2143 59.5248 95.1129 58.5375 93.089L49.2975 74.1478C48.567 72.6503 46.433 72.6503 45.7025 74.1478L36.4625 93.0889C35.4752 95.1129 32.4151 94.2143 32.6787 91.9779L35.1459 71.0481C35.341 69.3934 33.5457 68.2397 32.1216 69.1045L14.1081 80.0433C12.1833 81.2121 10.0947 78.8018 11.5256 77.063L24.9166 60.7896C25.9753 59.503 25.0889 57.5618 23.4232 57.5194L2.35533 56.9829C0.10417 56.9255 -0.34972 53.7687 1.7941 53.0795L21.8574 46.6292C23.4436 46.1192 23.7474 44.0069 22.3691 43.0707L4.93571 31.2292C3.07291 29.9639 4.39777 27.0628 6.57389 27.642L26.9395 33.0627C28.5497 33.4913 29.9472 31.8785 29.2938 30.3458L21.0299 10.9589C20.1469 8.88733 22.8299 7.16307 24.3474 8.82684L38.5495 24.3975C39.6723 25.6286 41.7199 25.0273 41.9989 23.3847L45.5282 2.6076Z" fill="#3AB094"/>
</svg>
