<svg width="50" height="50" viewBox="0 0 50 50" fill="none" xmlns="http://www.w3.org/2000/svg">
<rect x="0.5" y="0.5" width="49" height="49" rx="24.5" stroke="white"/>
<path d="M35.781 14.3078C35.3779 14.4344 13.5529 23.1531 13.4123 23.2469C13.1123 23.4391 12.9482 23.8844 13.042 24.2359C13.1029 24.4656 13.3045 24.7328 13.492 24.8312C13.5717 24.8734 14.9264 25.4031 16.5107 26.0078C18.0951 26.6125 19.3982 27.1141 19.4076 27.1234C19.417 27.1328 19.792 28.5391 20.242 30.2453C20.692 31.9516 21.0857 33.3906 21.1139 33.4516C21.3435 33.9016 21.9342 34.1031 22.3748 33.8828C22.4404 33.85 23.2279 33.2922 24.1232 32.6453L25.7592 31.4734L26.1857 31.7687C27.681 32.8 31.7639 35.5516 31.8951 35.6219C31.9982 35.6781 32.1576 35.7062 32.3451 35.7109C32.5889 35.7109 32.6639 35.6922 32.8373 35.5703C32.9592 35.4859 33.081 35.3453 33.142 35.2187C33.2826 34.9375 37.0185 15.3625 36.9857 15.1C36.9107 14.5375 36.3107 14.1437 35.781 14.3078ZM31.5623 18.2219C31.3935 18.3859 29.2748 20.4203 26.8514 22.75C21.7232 27.6672 21.742 27.6531 21.6951 27.8594C21.6764 27.9391 21.6482 27.9906 21.6295 27.9672C21.6107 27.9484 21.4795 27.4984 21.3435 26.9734C21.0764 25.9656 20.9685 25.7312 20.6967 25.5906C20.6217 25.5531 19.7029 25.1922 18.6482 24.7891C17.5935 24.3859 16.7029 24.0391 16.6654 24.0203C16.6185 23.9922 17.9639 23.4391 20.7857 22.3141C23.092 21.3953 26.5045 20.0359 28.3748 19.2859C30.2451 18.5406 31.792 17.9266 31.8201 17.9266C31.8435 17.9219 31.731 18.0578 31.5623 18.2219ZM34.506 18.2359C34.4826 18.3625 33.8357 21.7562 33.067 25.7875C32.2982 29.8141 31.6607 33.1234 31.6467 33.1328C31.6139 33.1703 24.1092 28.0797 24.1232 28.0375C24.1373 27.9906 34.4826 18.0203 34.5201 18.0203C34.5342 18.0156 34.5295 18.1141 34.506 18.2359ZM23.0498 29.6406C23.6029 30.0156 24.0576 30.3297 24.0576 30.3438C24.0576 30.3859 22.5576 31.4312 22.5342 31.4078C22.5201 31.3937 22.3607 30.8266 22.1826 30.1469C22.0045 29.4719 21.8451 28.8719 21.8264 28.8203C21.8029 28.7359 21.8123 28.7406 21.9201 28.8437C21.9857 28.9094 22.492 29.2656 23.0498 29.6406Z" fill="white"/>
</svg>
