<svg width="110" height="114" viewBox="0 0 110 114" fill="none" xmlns="http://www.w3.org/2000/svg">
<path d="M7.23983 41.8216C28.0523 6.93721 64.7402 -3.17709 82.7399 0.821637C102.24 6.82257 119.44 57.1226 102.24 88.3226C85.0402 119.523 47.0733 114.989 30.2398 108.823C13.2383 104.348 -12.7622 75.3477 7.23983 41.8216Z" fill="#E9F1FF"/>
<path d="M71.5464 56.3457C71.2097 55.5323 70.4881 55.3373 69.9997 55.2907V50.334C69.9997 48.4957 68.5047 47.0007 66.6664 47.0007H56.6664V44.684C57.1747 44.2273 57.4997 43.5707 57.4997 42.834C57.4997 42.1709 57.2363 41.5351 56.7675 41.0662C56.2987 40.5974 55.6628 40.334 54.9997 40.334C54.3367 40.334 53.7008 40.5974 53.232 41.0662C52.7631 41.5351 52.4997 42.1709 52.4997 42.834C52.4997 43.5707 52.8247 44.2273 53.3331 44.684V47.0007H43.3331C41.4947 47.0007 39.9997 48.4957 39.9997 50.334V55.329L39.8631 55.339C39.443 55.3693 39.05 55.5575 38.7631 55.8658C38.4762 56.1741 38.3166 56.5795 38.3164 57.0007V60.334C38.3164 60.776 38.492 61.1999 38.8046 61.5125C39.1171 61.8251 39.541 62.0007 39.9831 62.0007H39.9997V70.334C39.9997 72.1723 41.4947 73.6673 43.3331 73.6673H66.6664C68.5047 73.6673 69.9997 72.1723 69.9997 70.334V62.0007C70.4418 62.0007 70.8657 61.8251 71.1783 61.5125C71.4908 61.1999 71.6664 60.776 71.6664 60.334V57.104C71.6856 56.8453 71.6445 56.5857 71.5464 56.3457ZM43.3331 70.334V50.334H66.6664L66.6681 56.994L66.6664 57.0007V60.334L66.6681 60.3423L66.6697 70.334H43.3331Z" fill="#206CFF"/>
<path d="M49.166 60.3327C50.5467 60.3327 51.666 58.8403 51.666 56.9993C51.666 55.1584 50.5467 53.666 49.166 53.666C47.7853 53.666 46.666 55.1584 46.666 56.9993C46.666 58.8403 47.7853 60.3327 49.166 60.3327Z" fill="#206CFF"/>
<path d="M60.834 60.3327C62.2147 60.3327 63.334 58.8403 63.334 56.9993C63.334 55.1584 62.2147 53.666 60.834 53.666C59.4533 53.666 58.334 55.1584 58.334 56.9993C58.334 58.8403 59.4533 60.3327 60.834 60.3327Z" fill="#206CFF"/>
<path d="M48.334 63.666H61.6673V66.9993H48.334V63.666Z" fill="#206CFF"/>
</svg>
