<svg width="24" height="22" viewBox="0 0 24 22" fill="none" xmlns="http://www.w3.org/2000/svg">
<path d="M22.781 0.307812C22.3779 0.434374 0.552915 9.15312 0.41229 9.24687C0.11229 9.43906 -0.0517725 9.88437 0.0419775 10.2359C0.102915 10.4656 0.304477 10.7328 0.491977 10.8312C0.571665 10.8734 1.92635 11.4031 3.51073 12.0078C5.0951 12.6125 6.39823 13.1141 6.4076 13.1234C6.41698 13.1328 6.79198 14.5391 7.24198 16.2453C7.69198 17.9516 8.08573 19.3906 8.11385 19.4516C8.34354 19.9016 8.93417 20.1031 9.37479 19.8828C9.44042 19.85 10.2279 19.2922 11.1232 18.6453L12.7592 17.4734L13.1857 17.7687C14.681 18.8 18.7639 21.5516 18.8951 21.6219C18.9982 21.6781 19.1576 21.7062 19.3451 21.7109C19.5889 21.7109 19.6639 21.6922 19.8373 21.5703C19.9592 21.4859 20.081 21.3453 20.142 21.2187C20.2826 20.9375 24.0185 1.3625 23.9857 1.1C23.9107 0.537498 23.3107 0.143749 22.781 0.307812ZM18.5623 4.22187C18.3935 4.38594 16.2748 6.42031 13.8514 8.75C8.72323 13.6672 8.74198 13.6531 8.6951 13.8594C8.67635 13.9391 8.64823 13.9906 8.62948 13.9672C8.61073 13.9484 8.47948 13.4984 8.34354 12.9734C8.07635 11.9656 7.96854 11.7312 7.69667 11.5906C7.62167 11.5531 6.70292 11.1922 5.64823 10.7891C4.59354 10.3859 3.70291 10.0391 3.66542 10.0203C3.61854 9.99219 4.96385 9.43906 7.78573 8.31406C10.092 7.39531 13.5045 6.03594 15.3748 5.28594C17.2451 4.54062 18.792 3.92656 18.8201 3.92656C18.8435 3.92188 18.731 4.05781 18.5623 4.22187ZM21.506 4.23594C21.4826 4.3625 20.8357 7.75625 20.067 11.7875C19.2982 15.8141 18.6607 19.1234 18.6467 19.1328C18.6139 19.1703 11.1092 14.0797 11.1232 14.0375C11.1373 13.9906 21.4826 4.02031 21.5201 4.02031C21.5342 4.01562 21.5295 4.11406 21.506 4.23594ZM10.0498 15.6406C10.6029 16.0156 11.0576 16.3297 11.0576 16.3438C11.0576 16.3859 9.5576 17.4312 9.53417 17.4078C9.5201 17.3937 9.36073 16.8266 9.1826 16.1469C9.00448 15.4719 8.8451 14.8719 8.82635 14.8203C8.80292 14.7359 8.81229 14.7406 8.9201 14.8437C8.98573 14.9094 9.49198 15.2656 10.0498 15.6406Z" fill="white"/>
</svg>
