<svg width="110" height="114" viewBox="0 0 110 114" fill="none" xmlns="http://www.w3.org/2000/svg">
<path d="M7.23983 41.8216C28.0523 6.93721 64.7402 -3.17709 82.7399 0.821637C102.24 6.82257 119.44 57.1226 102.24 88.3226C85.0402 119.523 47.0733 114.989 30.2398 108.823C13.2383 104.348 -12.7622 75.3477 7.23983 41.8216Z" fill="#F1EDFF"/>
<path d="M67.5 39.5H72.5V44.5H67.5V39.5ZM67.5 47H72.5V52H67.5V47ZM60 39.5H65V44.5H60V39.5ZM60 47H65V52H60V47Z" fill="#010066"/>
<path d="M70 57V64.5H40V44.5H55V42H40C39.337 42 38.7011 42.2634 38.2322 42.7322C37.7634 43.2011 37.5 43.837 37.5 44.5V64.5C37.5 65.163 37.7634 65.7989 38.2322 66.2678C38.7011 66.7366 39.337 67 40 67H50V72H45V74.5H65V72H60V67H70C70.663 67 71.2989 66.7366 71.7678 66.2678C72.2366 65.7989 72.5 65.163 72.5 64.5V57H70ZM57.5 72H52.5V67H57.5V72Z" fill="#010066"/>
</svg>
