<svg width="24" height="20" viewBox="0 0 24 20" fill="none" xmlns="http://www.w3.org/2000/svg">
<path d="M9 0.957823C6.89062 1.0047 4.3125 1.13126 3.675 1.21564C2.79375 1.32814 2.17969 1.59064 1.58437 2.11095C0.960937 2.64532 0.61875 3.25939 0.35625 4.31407C0.0984375 5.34532 0.0234375 6.60157 0.0234375 10C0.0234375 14.0266 0.140625 15.3766 0.590625 16.5016C1.11094 17.7953 2.07656 18.5125 3.60937 18.7375C4.39219 18.85 5.17031 18.9016 7.54687 18.9813C11.3484 19.1078 15.4594 19.075 18.9047 18.8828C20.6906 18.7797 21.0422 18.7234 21.675 18.4094C22.5281 17.9828 23.0906 17.3359 23.4422 16.3656C23.8781 15.1844 23.9719 14.0219 23.9719 10C23.9719 6.12814 23.8687 4.80626 23.4891 3.70001C23.0719 2.50001 22.2375 1.70314 21.0375 1.35626C20.5312 1.21095 19.9875 1.1547 18.1875 1.07032C15.0703 0.920324 12.1172 0.88751 9 0.957823ZM14.7281 2.35939C17.4 2.42501 20.0625 2.56564 20.5078 2.66876C20.9016 2.76251 21.1828 2.89845 21.4969 3.14689C21.8016 3.38595 21.9937 3.69064 22.1672 4.21095C22.4859 5.1672 22.5703 6.40939 22.5656 10.0938C22.5656 13.9234 22.4766 14.9547 22.0734 16C21.7781 16.7734 21.2437 17.1953 20.3719 17.3641C20.0766 17.4203 18.0797 17.5281 16.125 17.5984C14.1375 17.6641 10.35 17.6688 8.25 17.5984C3.99375 17.4625 3.3 17.3781 2.62969 16.9328C2.25469 16.6844 2.03906 16.3797 1.84687 15.8219C1.51875 14.8703 1.42969 13.6281 1.42969 10C1.42969 6.40939 1.51406 5.22814 1.8375 4.2672C2.01562 3.73282 2.14687 3.50314 2.42812 3.24064C2.98125 2.72032 3.34687 2.6172 4.96875 2.52345C8.01562 2.34532 11.5172 2.28907 14.7281 2.35939Z" fill="white"/>
<path d="M9.53418 5.9872C9.31856 6.08564 9.06543 6.36689 9.00449 6.59189C8.96231 6.73251 8.95293 7.62783 8.96231 9.86845L8.97637 12.9435L9.11699 13.1497C9.31856 13.431 9.60918 13.5856 9.94668 13.581C10.1998 13.5763 10.3029 13.5294 12.9467 12.1091C14.4467 11.3028 15.7404 10.595 15.8107 10.5435C16.0311 10.3841 16.1811 10.0841 16.1811 9.80283C16.1857 9.47939 16.0873 9.25439 15.8623 9.06689C15.7592 8.98251 14.6998 8.37783 13.4998 7.71689C10.1107 5.86064 10.2279 5.92158 9.93262 5.92158C9.79199 5.92626 9.61387 5.95439 9.53418 5.9872ZM12.492 8.77158C13.3967 9.26845 14.1748 9.69501 14.217 9.72783C14.2873 9.77939 14.0342 9.92939 12.3514 10.8294C11.2826 11.406 10.3967 11.8747 10.3826 11.8747C10.3686 11.8747 10.3592 10.9138 10.3592 9.7372V7.5997L10.6076 7.74033C10.7389 7.81533 11.592 8.27939 12.492 8.77158Z" fill="white"/>
</svg>
