<svg width="50" height="50" viewBox="0 0 50 50" fill="none" xmlns="http://www.w3.org/2000/svg">
<rect x="0.5" y="0.5" width="49" height="49" rx="24.5" stroke="white"/>
<path d="M22 15.9578C19.8906 16.0047 17.3125 16.1313 16.675 16.2156C15.7937 16.3281 15.1797 16.5906 14.5844 17.1109C13.9609 17.6453 13.6187 18.2594 13.3562 19.3141C13.0984 20.3453 13.0234 21.6016 13.0234 25C13.0234 29.0266 13.1406 30.3766 13.5906 31.5016C14.1109 32.7953 15.0766 33.5125 16.6094 33.7375C17.3922 33.85 18.1703 33.9016 20.5469 33.9813C24.3484 34.1078 28.4594 34.075 31.9047 33.8828C33.6906 33.7797 34.0422 33.7234 34.675 33.4094C35.5281 32.9828 36.0906 32.3359 36.4422 31.3656C36.8781 30.1844 36.9719 29.0219 36.9719 25C36.9719 21.1281 36.8687 19.8063 36.4891 18.7C36.0719 17.5 35.2375 16.7031 34.0375 16.3563C33.5312 16.2109 32.9875 16.1547 31.1875 16.0703C28.0703 15.9203 25.1172 15.8875 22 15.9578ZM27.7281 17.3594C30.4 17.425 33.0625 17.5656 33.5078 17.6688C33.9016 17.7625 34.1828 17.8984 34.4969 18.1469C34.8016 18.3859 34.9937 18.6906 35.1672 19.2109C35.4859 20.1672 35.5703 21.4094 35.5656 25.0938C35.5656 28.9234 35.4766 29.9547 35.0734 31C34.7781 31.7734 34.2437 32.1953 33.3719 32.3641C33.0766 32.4203 31.0797 32.5281 29.125 32.5984C27.1375 32.6641 23.35 32.6688 21.25 32.5984C16.9937 32.4625 16.3 32.3781 15.6297 31.9328C15.2547 31.6844 15.0391 31.3797 14.8469 30.8219C14.5187 29.8703 14.4297 28.6281 14.4297 25C14.4297 21.4094 14.5141 20.2281 14.8375 19.2672C15.0156 18.7328 15.1469 18.5031 15.4281 18.2406C15.9812 17.7203 16.3469 17.6172 17.9687 17.5234C21.0156 17.3453 24.5172 17.2891 27.7281 17.3594Z" fill="white"/>
<path d="M22.5342 20.9872C22.3186 21.0856 22.0654 21.3669 22.0045 21.5919C21.9623 21.7325 21.9529 22.6278 21.9623 24.8685L21.9764 27.9435L22.117 28.1497C22.3186 28.431 22.6092 28.5856 22.9467 28.581C23.1998 28.5763 23.3029 28.5294 25.9467 27.1091C27.4467 26.3028 28.7404 25.595 28.8107 25.5435C29.0311 25.3841 29.1811 25.0841 29.1811 24.8028C29.1857 24.4794 29.0873 24.2544 28.8623 24.0669C28.7592 23.9825 27.6998 23.3778 26.4998 22.7169C23.1107 20.8606 23.2279 20.9216 22.9326 20.9216C22.792 20.9263 22.6139 20.9544 22.5342 20.9872ZM25.492 23.7716C26.3967 24.2685 27.1748 24.695 27.217 24.7278C27.2873 24.7794 27.0342 24.9294 25.3514 25.8294C24.2826 26.406 23.3967 26.8747 23.3826 26.8747C23.3686 26.8747 23.3592 25.9138 23.3592 24.7372V22.5997L23.6076 22.7403C23.7389 22.8153 24.592 23.2794 25.492 23.7716Z" fill="white"/>
</svg>
