<svg width="140" height="140" viewBox="0 0 140 140" fill="none" xmlns="http://www.w3.org/2000/svg">
<path d="M70.0061 125.046L64.7389 136.126L63.1109 136.001L59.3192 124.221L61.0406 124.353L62.1055 127.915L66.8804 128.284L68.4015 124.922L70.0061 125.046ZM66.3491 129.481L62.4778 129.182L63.4254 132.436C63.7147 133.425 63.9237 134.235 64.0526 134.867C64.2545 134.146 64.5158 133.434 64.8364 132.733L66.3491 129.481Z" fill="#2C2E33"/>
<path d="M55.6483 126.898L54.2564 126.549C54.3798 125.985 54.3863 125.489 54.276 125.059C54.159 124.633 53.8919 124.226 53.4746 123.839C53.0557 123.457 52.5387 123.16 51.9234 122.947C51.3771 122.758 50.8667 122.672 50.3921 122.69C49.9175 122.707 49.5308 122.821 49.2319 123.032C48.9263 123.246 48.7156 123.52 48.5998 123.855C48.4822 124.195 48.4785 124.524 48.5884 124.843C48.6967 125.167 48.9474 125.494 49.3406 125.823C49.5918 126.037 50.1736 126.434 51.0861 127.014C51.9968 127.599 52.6148 128.067 52.9403 128.416C53.3633 128.866 53.6339 129.334 53.7518 129.822C53.8631 130.312 53.8327 130.806 53.6606 131.303C53.4715 131.849 53.1402 132.305 52.6665 132.67C52.1912 133.04 51.6132 133.245 50.9324 133.285C50.2517 133.325 49.5472 133.219 48.8187 132.967C48.0165 132.689 47.3553 132.314 46.8353 131.842C46.3087 131.373 45.9674 130.831 45.8114 130.215C45.6554 129.598 45.675 128.969 45.8702 128.325L47.2791 128.697C47.1162 129.407 47.1883 130.011 47.4955 130.508C47.7978 131.004 48.3649 131.396 49.1967 131.684C50.0629 131.984 50.7507 132.043 51.2601 131.861C51.7629 131.682 52.0918 131.369 52.2469 130.921C52.3814 130.532 52.3519 130.164 52.1583 129.816C51.9695 129.469 51.3404 128.962 50.2708 128.294C49.1947 127.63 48.4741 127.124 48.1091 126.777C47.5797 126.269 47.2423 125.739 47.0971 125.187C46.9502 124.64 46.9773 124.076 47.1783 123.495C47.3777 122.919 47.7308 122.433 48.2378 122.035C48.743 121.642 49.3551 121.41 50.0741 121.34C50.7864 121.272 51.5289 121.372 52.3016 121.639C53.2811 121.978 54.0536 122.406 54.6192 122.921C55.18 123.435 55.551 124.043 55.7323 124.745C55.9071 125.45 55.879 126.168 55.6483 126.898Z" fill="#2C2E33"/>
<path d="M40.8876 116.442L35.3524 124.892L38.5089 126.96L37.7683 128.091L30.1744 123.116L30.915 121.986L34.0846 124.062L39.6198 115.612L40.8876 116.442Z" fill="#2C2E33"/>
<path d="M32.7158 110.502L24.2173 118.18L20.813 114.412C20.1287 113.655 19.6858 113.009 19.4842 112.475C19.2788 111.945 19.2629 111.387 19.4364 110.802C19.6098 110.217 19.9304 109.714 20.398 109.291C21.0009 108.746 21.6855 108.482 22.4516 108.499C23.2178 108.516 24.0253 108.881 24.8741 109.596C24.7482 109.169 24.685 108.815 24.6845 108.535C24.6892 107.934 24.7849 107.283 24.9717 106.58L25.9493 103.012L27.2272 104.427L26.4751 107.149C26.2617 107.938 26.1158 108.562 26.0373 109.019C25.9588 109.475 25.9422 109.838 25.9876 110.106C26.0296 110.37 26.1078 110.608 26.2224 110.82C26.3106 110.972 26.4856 111.193 26.7475 111.483L27.9259 112.787L31.6998 109.378L32.7158 110.502ZM26.952 113.667L24.768 111.25C24.3036 110.736 23.8884 110.381 23.5221 110.185C23.1521 109.993 22.783 109.926 22.415 109.985C22.043 110.048 21.7199 110.203 21.4455 110.45C21.0436 110.814 20.8458 111.259 20.8522 111.787C20.8551 112.31 21.1412 112.887 21.7103 113.517L24.1404 116.207L26.952 113.667Z" fill="#2C2E33"/>
<path d="M18.2915 101.773C16.5837 102.608 15.0237 102.802 13.6114 102.357C12.1944 101.913 11.1313 100.966 10.422 99.5159C9.95753 98.5661 9.76574 97.5989 9.84664 96.6143C9.92755 95.6297 10.2778 94.7395 10.8975 93.9437C11.5101 93.1455 12.3311 92.4947 13.3605 91.9913C14.4039 91.4811 15.4403 91.2352 16.4697 91.2536C17.4991 91.272 18.4154 91.5631 19.2187 92.1269C20.0173 92.693 20.6351 93.4228 21.0722 94.3165C21.5458 95.285 21.7351 96.265 21.6402 97.2565C21.5453 98.2479 21.1892 99.1381 20.5719 99.9269C19.9547 100.716 19.1945 101.331 18.2915 101.773ZM17.6262 100.359C18.8661 99.7523 19.6815 98.9419 20.0724 97.9275C20.4564 96.9106 20.4025 95.8992 19.9106 94.8932C19.4095 93.8686 18.6374 93.2026 17.5942 92.8952C16.5488 92.5832 15.364 92.7509 14.0399 93.3984C13.2024 93.808 12.5422 94.3076 12.0595 94.8973C11.5698 95.4846 11.2881 96.1355 11.2142 96.85C11.1334 97.562 11.2589 98.2573 11.5906 98.9357C12.062 99.8996 12.8003 100.568 13.8056 100.94C14.8039 101.31 16.0775 101.116 17.6262 100.359Z" fill="#2C2E33"/>
<path d="M17.0166 84.5889L5.79954 86.9024L5.49339 85.418L15.3867 83.3775L14.2473 77.8532L15.571 77.5802L17.0166 84.5889Z" fill="#2C2E33"/>
<path d="M14.9906 74.0073L3.69267 69.2244L3.74784 67.5925L15.3528 63.2947L15.2945 65.0202L11.7826 66.2382L11.6208 71.0245L15.045 72.3988L14.9906 74.0073ZM10.4019 70.5456L10.5331 66.665L7.3226 67.7524C6.34729 68.0843 5.54693 68.3282 4.92151 68.4842C5.65054 68.6548 6.37233 68.885 7.0869 69.175L10.4019 70.5456Z" fill="#2C2E33"/>
<path d="M16.1072 58.8127L5.13218 55.5381L6.36072 51.4206C6.6109 50.5821 6.92349 49.9444 7.29848 49.5073C7.66997 49.0638 8.13024 48.769 8.67927 48.623C9.22481 48.4705 9.74961 48.4695 10.2537 48.6199C10.7228 48.7599 11.1266 49.0189 11.4649 49.3971C11.8032 49.7752 12.0229 50.2593 12.124 50.8493C12.5167 50.2436 13.0005 49.8335 13.5754 49.6191C14.1518 49.3998 14.7594 49.3854 15.3982 49.576C15.9123 49.7294 16.3586 49.9821 16.7373 50.3343C17.1125 50.6799 17.3722 51.0482 17.5164 51.4391C17.6607 51.83 17.723 52.2861 17.7033 52.8075C17.6801 53.3223 17.5643 53.9291 17.3558 54.6279L16.1072 58.8127ZM10.1771 55.4617L10.8852 53.0886C11.0773 52.4447 11.1726 51.9704 11.1712 51.6656C11.1716 51.2635 11.0721 50.9322 10.8726 50.6716C10.6747 50.406 10.3835 50.2158 9.99924 50.1012C9.63491 49.9925 9.28943 49.9845 8.96281 50.0773C8.6312 50.1686 8.36709 50.3615 8.17047 50.6561C7.96887 50.9493 7.75043 51.4901 7.51514 52.2787L6.86066 54.4722L10.1771 55.4617ZM15.2454 56.974L16.0607 54.2414C16.2007 53.7723 16.2815 53.4377 16.3031 53.2376C16.343 52.8853 16.3266 52.5761 16.2539 52.3098C16.1811 52.0435 16.0341 51.7985 15.8128 51.5749C15.5864 51.3497 15.2986 51.185 14.9492 51.0808C14.54 50.9587 14.1544 50.9577 13.7924 51.078C13.4254 51.1968 13.1261 51.4255 12.8947 51.764C12.6597 52.0961 12.438 52.6116 12.2295 53.3103L11.4723 55.8482L15.2454 56.974Z" fill="#2C2E33"/>
<path d="M23.6182 40.1679L17.4672 29.5526L18.4925 28.2819L30.3494 31.8263L29.2651 33.1699L25.7267 32.0313L22.7192 35.7583L24.6288 38.9155L23.6182 40.1679ZM22.0334 34.6427L24.4717 31.6209L21.2526 30.5593C20.2738 30.2379 19.4876 29.9516 18.8941 29.7001C19.374 30.2748 19.8123 30.8928 20.2089 31.5542L22.0334 34.6427Z" fill="#2C2E33"/>
<path d="M31.098 26.0086L32.1742 25.0592C32.5689 25.48 32.9745 25.7665 33.391 25.9187C33.8086 26.0636 34.295 26.0737 34.8502 25.9489C35.4022 25.8199 35.9402 25.5621 36.4641 25.1756C36.9293 24.8323 37.289 24.4601 37.5432 24.059C37.7974 23.6578 37.9222 23.2744 37.9178 22.9087C37.9145 22.5358 37.8077 22.2068 37.5974 21.9218C37.384 21.6326 37.1147 21.443 36.7893 21.353C36.4609 21.2587 36.0498 21.2805 35.556 21.4183C35.2376 21.5044 34.5809 21.7591 33.5859 22.1826C32.5878 22.6019 31.8525 22.8467 31.3801 22.9169C30.7699 23.0111 30.2307 22.9689 29.7622 22.7902C29.2949 22.6043 28.9051 22.2996 28.5928 21.8763C28.2496 21.4111 28.0615 20.88 28.0287 20.2828C27.9928 19.6815 28.1511 19.0889 28.5036 18.5052C28.8561 17.9215 29.3424 17.4008 29.9627 16.9432C30.6458 16.4391 31.3292 16.1064 32.0128 15.9451C32.6974 15.7765 33.3379 15.8024 33.9341 16.0227C34.5303 16.243 35.0383 16.6157 35.4582 17.1409L34.3539 18.0916C33.8612 17.5555 33.3227 17.2731 32.7386 17.2446C32.1586 17.213 31.5145 17.4584 30.8062 17.981C30.0686 18.5253 29.6305 19.0589 29.492 19.5817C29.3547 20.0974 29.4267 20.5458 29.7081 20.9272C29.9524 21.2583 30.2728 21.4426 30.6694 21.4801C31.0618 21.5207 31.836 21.2892 32.9921 20.7857C34.1493 20.275 34.9741 19.9674 35.4666 19.8629C36.1855 19.7143 36.8135 19.7365 37.3505 19.9292C37.8845 20.1178 38.3339 20.4593 38.6988 20.9539C39.0606 21.4442 39.2619 22.0109 39.3027 22.6539C39.3404 23.2928 39.1849 23.9286 38.8362 24.5613C38.4885 25.1867 37.9857 25.7422 37.3278 26.2277C36.4938 26.843 35.7042 27.2379 34.959 27.4123C34.2181 27.5836 33.5069 27.5452 32.8255 27.2971C32.1452 27.0418 31.5694 26.6123 31.098 26.0086Z" fill="#2C2E33"/>
<path d="M48.0739 19.7616L44.2428 10.4147L40.7513 11.8458L40.2387 10.5952L48.6386 7.15228L49.1512 8.40287L45.6452 9.83991L49.4763 19.1868L48.0739 19.7616Z" fill="#2C2E33"/>
<path d="M57.596 16.3903L56.0791 5.03802L61.1125 4.36548C62.1244 4.23029 62.9074 4.23076 63.4615 4.3669C64.015 4.49788 64.4837 4.80045 64.8676 5.27462C65.2515 5.74879 65.4851 6.2982 65.5686 6.92286C65.6762 7.7282 65.5062 8.4419 65.0586 9.06395C64.611 9.686 63.8526 10.1447 62.7833 10.4399C63.2063 10.5778 63.5335 10.7259 63.7648 10.8841C64.2574 11.2282 64.7403 11.676 65.2133 12.2276L67.6008 15.0535L65.7113 15.3059L63.8935 13.1448C63.3636 12.522 62.9326 12.0489 62.6004 11.7255C62.2682 11.402 61.9788 11.1832 61.7324 11.069C61.4911 10.9541 61.2505 10.8838 61.0106 10.8581C60.8354 10.8447 60.5542 10.8639 60.167 10.9156L58.4247 11.1484L59.0982 16.1895L57.596 16.3903ZM58.2508 9.84745L61.48 9.416C62.1666 9.32426 62.6942 9.18283 63.0627 8.99171C63.4306 8.79543 63.6945 8.52896 63.8544 8.19231C64.0137 7.8505 64.0688 7.49633 64.0199 7.12979C63.9481 6.5929 63.693 6.17772 63.2544 5.88426C62.821 5.59011 62.1836 5.49925 61.3421 5.61168L57.749 6.09177L58.2508 9.84745Z" fill="#2C2E33"/>
<path d="M72.9608 9.4423C73.2394 7.56178 73.9622 6.16564 75.1292 5.25388C76.297 4.33698 77.6794 3.99682 79.2766 4.2334C80.3225 4.38833 81.2283 4.77786 81.9941 5.40202C82.7598 6.02617 83.2953 6.81891 83.6004 7.78025C83.9115 8.7372 83.9831 9.78241 83.8152 10.9159C83.645 12.0648 83.2609 13.0583 82.6629 13.8964C82.0649 14.7345 81.3061 15.325 80.3865 15.6679C79.4677 16.0057 78.5163 16.1017 77.5323 15.9559C76.4658 15.7979 75.5508 15.3991 74.7873 14.7595C74.0238 14.1199 73.4917 13.3224 73.191 12.367C72.8902 11.4115 72.8135 10.4367 72.9608 9.4423ZM74.503 9.69444C74.3008 11.0597 74.5071 12.1907 75.1219 13.0874C75.7426 13.9796 76.6069 14.5078 77.7146 14.6719C78.8429 14.839 79.829 14.5797 80.673 13.8938C81.5221 13.2088 82.0547 12.1372 82.2707 10.6792C82.4073 9.75696 82.3692 8.92996 82.1564 8.19817C81.9496 7.462 81.5726 6.86121 81.0255 6.39582C80.4843 5.92603 79.8402 5.63581 79.0932 5.52515C78.0318 5.36794 77.0631 5.59827 76.1871 6.21616C75.317 6.82966 74.7556 7.98908 74.503 9.69444Z" fill="#2C2E33"/>
<path d="M87.8441 18.1193L92.2882 7.56354L93.685 8.15163L89.7654 17.4617L94.9641 19.6504L94.4397 20.8961L87.8441 18.1193Z" fill="#2C2E33"/>
<path d="M97.7133 22.4424L108.053 15.8378L109.366 16.8073L106.338 28.8063L104.949 27.7812L105.934 24.1969L102.08 21.3535L99.0083 23.3979L97.7133 22.4424ZM103.165 20.62L106.289 22.9253L107.211 19.6633C107.489 18.6715 107.741 17.8737 107.967 17.2698C107.413 17.7741 106.815 18.2387 106.171 18.6636L103.165 20.62Z" fill="#2C2E33"/>
<path d="M109.606 31.9665L118.52 24.7741L121.218 28.1181C121.767 28.799 122.116 29.4178 122.264 29.9743C122.419 30.5317 122.402 31.078 122.211 31.6132C122.028 32.1492 121.732 32.5824 121.322 32.9127C120.941 33.2201 120.499 33.4062 119.996 33.471C119.493 33.5358 118.969 33.4428 118.426 33.1921C118.703 33.8588 118.767 34.4897 118.618 35.0849C118.472 35.6842 118.14 36.1932 117.621 36.6118C117.204 36.9487 116.743 37.1735 116.238 37.2863C115.741 37.3998 115.29 37.4054 114.886 37.303C114.483 37.2006 114.071 36.9936 113.653 36.6822C113.241 36.3716 112.807 35.9326 112.349 35.3651L109.606 31.9665ZM115.726 28.9758L117.281 30.9031C117.703 31.426 118.04 31.7731 118.292 31.9445C118.624 32.1725 118.953 32.2781 119.281 32.2612C119.612 32.2484 119.933 32.1161 120.245 31.8643C120.541 31.6255 120.743 31.3453 120.852 31.0235C120.964 30.6985 120.955 30.3715 120.823 30.0426C120.696 29.7105 120.374 29.2242 119.857 28.5838L118.42 26.8024L115.726 28.9758ZM111.61 32.2972L113.401 34.5164C113.708 34.8974 113.938 35.1535 114.091 35.2846C114.359 35.5169 114.623 35.6785 114.884 35.7693C115.144 35.8601 115.429 35.8776 115.739 35.8218C116.053 35.7627 116.352 35.6187 116.635 35.3898C116.968 35.1216 117.187 34.8042 117.293 34.4377C117.402 34.068 117.383 33.6919 117.235 33.3094C117.095 32.9277 116.795 32.4531 116.337 31.8856L114.674 29.8245L111.61 32.2972Z" fill="#2C2E33"/>
<path d="M120.722 48.7116L132.955 49.6518L133.421 51.2164L123.787 58.9829L123.293 57.3284L126.235 55.0565L124.866 50.4673L121.182 50.2538L120.722 48.7116ZM126.174 50.5336L127.284 54.2543L129.982 52.202C130.801 51.5772 131.482 51.0913 132.025 50.7444C131.28 50.8146 130.522 50.826 129.752 50.7784L126.174 50.5336Z" fill="#2C2E33"/>
<path d="M128.158 62.8958L128.331 64.3204C127.761 64.4074 127.295 64.5795 126.934 64.8367C126.578 65.0988 126.294 65.4941 126.083 66.0223C125.877 66.5504 125.785 67.1398 125.807 67.7905C125.826 68.3683 125.929 68.8755 126.116 69.3122C126.303 69.7488 126.548 70.0688 126.852 70.2722C127.161 70.4806 127.493 70.5789 127.847 70.5669C128.206 70.5548 128.515 70.4401 128.773 70.2229C129.037 70.0055 129.252 69.6543 129.418 69.1693C129.527 68.8581 129.689 68.1726 129.903 67.1126C130.123 66.0525 130.337 65.3079 130.547 64.8787C130.815 64.3224 131.155 63.9018 131.567 63.6169C131.985 63.337 132.457 63.1882 132.983 63.1704C133.561 63.1509 134.105 63.2966 134.616 63.6077C135.132 63.9185 135.53 64.3845 135.812 65.0055C136.094 65.6266 136.247 66.3223 136.273 67.0927C136.302 67.9412 136.189 68.6928 135.935 69.3476C135.687 70.0074 135.303 70.5207 134.784 70.8874C134.264 71.2541 133.67 71.4618 132.999 71.5106L132.84 70.062C133.561 69.9594 134.099 69.6755 134.453 69.2101C134.808 68.7499 134.97 68.08 134.94 67.2003C134.909 66.2842 134.718 65.621 134.365 65.2108C134.018 64.8056 133.607 64.6111 133.134 64.6271C132.722 64.641 132.389 64.8008 132.134 65.1064C131.878 65.4069 131.63 66.1761 131.391 67.4141C131.157 68.6571 130.943 69.5112 130.75 69.9763C130.466 70.6529 130.092 71.158 129.629 71.4916C129.171 71.8249 128.635 72.002 128.021 72.0228C127.412 72.0434 126.831 71.8884 126.278 71.558C125.73 71.2273 125.294 70.7392 124.97 70.0935C124.651 69.4529 124.478 68.7239 124.45 67.9067C124.415 66.8708 124.537 65.9964 124.815 65.2835C125.093 64.5758 125.528 64.0113 126.118 63.5901C126.714 63.1739 127.394 62.9424 128.158 62.8958Z" fill="#2C2E33"/>
<path d="M123.696 80.4242L133.57 82.5584L134.367 78.8702L135.688 79.1557L133.77 88.0289L132.449 87.7434L133.249 84.0398L123.376 81.9056L123.696 80.4242Z" fill="#2C2E33"/>
<path d="M121.085 90.1822L131.301 95.3595L129.006 99.8891C128.544 100.8 128.1 101.445 127.674 101.825C127.253 102.207 126.738 102.422 126.13 102.47C125.522 102.518 124.937 102.399 124.375 102.114C123.65 101.747 123.158 101.203 122.898 100.482C122.639 99.7604 122.691 98.8755 123.053 97.827C122.699 98.0976 122.392 98.2835 122.131 98.3845C121.568 98.5958 120.926 98.7402 120.203 98.8178L116.522 99.1858L117.384 97.4854L120.194 97.2106C121.008 97.1265 121.642 97.0391 122.097 96.9484C122.551 96.8576 122.895 96.743 123.129 96.6045C123.36 96.4707 123.555 96.3122 123.712 96.129C123.822 95.9922 123.965 95.7496 124.142 95.4011L124.936 93.8332L120.4 91.5341L121.085 90.1822ZM126.107 94.4265L124.635 97.3324C124.321 97.9503 124.139 98.4653 124.088 98.8773C124.042 99.2916 124.112 99.66 124.299 99.9825C124.49 100.307 124.751 100.553 125.081 100.72C125.564 100.965 126.051 100.99 126.541 100.795C127.029 100.604 127.465 100.13 127.848 99.3728L129.487 96.1393L126.107 94.4265Z" fill="#2C2E33"/>
<path d="M118.112 106.779C119.504 108.073 120.246 109.46 120.336 110.938C120.431 112.419 119.929 113.752 118.829 114.934C118.109 115.708 117.275 116.235 116.327 116.512C115.379 116.79 114.423 116.783 113.458 116.49C112.493 116.204 111.591 115.672 110.751 114.892C109.901 114.101 109.299 113.222 108.947 112.254C108.595 111.287 108.538 110.327 108.776 109.375C109.017 108.426 109.477 107.588 110.154 106.859C110.888 106.069 111.735 105.541 112.695 105.274C113.654 105.007 114.613 105.02 115.571 105.313C116.528 105.606 117.375 106.095 118.112 106.779ZM117.031 107.907C116.02 106.968 114.971 106.497 113.884 106.496C112.797 106.503 111.872 106.916 111.109 107.736C110.333 108.572 109.988 109.531 110.076 110.615C110.16 111.703 110.741 112.749 111.821 113.752C112.504 114.387 113.207 114.824 113.931 115.063C114.655 115.309 115.363 115.339 116.057 115.151C116.75 114.971 117.354 114.605 117.868 114.052C118.599 113.266 118.957 112.337 118.944 111.265C118.931 110.2 118.293 109.081 117.031 107.907Z" fill="#2C2E33"/>
<path d="M102.533 114.134L108.718 123.774L107.442 124.592L101.987 116.09L97.2398 119.136L96.5099 117.998L102.533 114.134Z" fill="#2C2E33"/>
<path d="M93.3798 119.824L92.9697 132.086L91.4268 132.62L83.2507 123.331L84.8823 122.766L87.2794 125.607L91.805 124.04L91.8589 120.351L93.3798 119.824ZM91.7953 125.35L88.1261 126.62L90.2932 129.226C90.9529 130.018 91.4678 130.677 91.8379 131.205C91.7355 130.463 91.6914 129.707 91.7056 128.936L91.7953 125.35Z" fill="#2C2E33"/>
<path d="M80.3481 124.234L81.23 135.653L76.9459 135.984C76.0735 136.051 75.366 135.988 74.8235 135.795C74.2762 135.608 73.8359 135.284 73.5026 134.824C73.1645 134.369 72.9752 133.88 72.9347 133.355C72.897 132.867 72.9939 132.397 73.2255 131.946C73.457 131.494 73.83 131.116 74.3444 130.809C73.6381 130.66 73.0818 130.356 72.6754 129.896C72.2638 129.437 72.0323 128.875 71.981 128.21C71.9397 127.675 72.0154 127.168 72.2082 126.688C72.3962 126.214 72.6468 125.839 72.9599 125.565C73.273 125.29 73.6764 125.068 74.17 124.899C74.6589 124.736 75.2669 124.626 75.9939 124.57L80.3481 124.234ZM79.3483 130.972L76.8791 131.162C76.2092 131.214 75.7323 131.295 75.4483 131.406C75.0729 131.55 74.7993 131.762 74.6276 132.041C74.4507 132.321 74.3777 132.661 74.4086 133.061C74.4379 133.44 74.5544 133.766 74.7582 134.037C74.9625 134.314 75.2373 134.491 75.5829 134.569C75.9289 134.652 76.5121 134.662 77.3325 134.598L79.6148 134.422L79.3483 130.972ZM78.9411 125.698L76.098 125.918C75.6098 125.955 75.2685 126 75.074 126.052C74.7309 126.141 74.4481 126.267 74.2256 126.431C74.0032 126.594 73.8273 126.819 73.698 127.106C73.569 127.398 73.5186 127.726 73.5467 128.089C73.5795 128.515 73.7171 128.875 73.9592 129.17C74.2018 129.47 74.5226 129.667 74.9217 129.762C75.316 129.862 75.8767 129.884 76.6037 129.828L79.2442 129.624L78.9411 125.698Z" fill="#2C2E33"/>
</svg>
